<svg width="512" height="512" xmlns="http://www.w3.org/2000/svg">

 <g>
  <title>background</title>
  <rect fill="none" id="canvas_background" height="402" width="582" y="-1" x="-1"/>
 </g>
 <g>
  <title>Layer 1</title>
  <g id="svg_1">
   <g stroke="null" id="svg_58">
    <g stroke="null" transform="matrix(0.9723356356302567,0,0,0.9450952556517876,-2033.9295037496572,-1969.0725377779354) " id="svg_30">
     <circle stroke="null" id="svg_31" fill="#FFCA51" r="245" cy="2363.749737" cx="2351.995968"/>
     <path stroke="null" id="svg_32" fill="#B7092B" d="m2533.429968,2470.194737c-1.375,-5.325 -6.642,-11.444 -11.703,-13.597l-110.602,-47.056c-0.002,-0.001 -0.003,-0.002 -0.005,-0.003l-16.399,-6.978l0,8.153c0,2.492 -1.459,6.115 -3.186,7.912l-36.795,38.272c-0.731,0.761 -1.706,1.18 -2.744,1.18s-2.013,-0.419 -2.744,-1.18l-36.795,-38.272c-1.727,-1.797 -3.186,-5.42 -3.186,-7.912l0,-8.153l-16.399,6.978c-0.002,0.001 -0.003,0.002 -0.005,0.003l-110.601,47.056c-5.062,2.153 -10.328,8.272 -11.703,13.597l-11.511,44.555c44.849,57.226 114.601,94 192.944,94s148.096,-36.774 192.944,-94l-11.51,-44.555z"/>
     <path stroke="null" id="svg_33" fill="#EF8318" d="m2371.882968,2096.749737l-39.773,0c-42.99,0 -77.84,34.852 -77.84,77.84l0,46.001c0,-42.989 34.85,-60.84 77.84,-60.84l39.773,0c42.99,0 77.84,17.851 77.84,60.84l0,-46.001c0,-42.988 -34.85,-77.84 -77.84,-77.84z"/>
     <path stroke="null" id="svg_34" fill="#DB722C" d="m2285.197968,2169.253737c2.745,-40.497 36.443,-72.504 77.638,-72.504l-30.727,0c-42.99,0 -77.84,34.852 -77.84,77.84l0,46.001c0,-25.37 12.144,-41.979 30.929,-51.337z"/>
     <path stroke="null" id="svg_35" fill="#A00026" d="m2291.735968,2427.373737c-1.905,-1.982 -3.465,-5.854 -3.465,-8.604l0,-2.273c0,-2.75 2.069,-5.879 4.6,-6.957l-110.605,47.058c-5.062,2.153 -10.328,8.272 -11.703,13.597l-11.511,44.555c5.609,7.157 11.639,13.962 17.997,20.444l13.458,-50.934c1.375,-5.325 6.642,-11.444 11.703,-13.597l93.074,-39.6l-3.548,-3.689z"/>
     <g stroke="null" id="svg_36">
      <path stroke="null" id="svg_37" fill="#FFFFFF" d="m2305.995968,2441.019737l0,163.393c6.578,1.25 13.247,2.236 20,2.949l0,-145.539l-20,-20.803z"/>
      <path stroke="null" id="svg_38" fill="#FFFFFF" d="m2355.460968,2485.262737c-1.905,1.982 -5.024,1.982 -6.93,0l-6.535,-6.797l0,130.059c3.318,0.133 6.648,0.225 10,0.225c3.352,0 6.682,-0.092 10,-0.225l0,-130.059l-6.535,6.797z"/>
      <path stroke="null" id="svg_39" fill="#FFFFFF" d="m2377.995968,2461.822737l0,145.538c6.753,-0.713 13.422,-1.699 20,-2.949l0,-163.392l-20,20.803z"/>
     </g>
     <path stroke="null" id="svg_40" fill="#1A2B63" d="m2411.119968,2409.538737l-16.399,-6.978l0,8.153c0,2.492 -1.459,6.115 -3.186,7.912l-36.795,38.272c-0.731,0.761 -1.706,1.18 -2.744,1.18s-2.013,-0.419 -2.744,-1.18l-36.795,-38.272c-1.727,-1.797 -3.186,-5.42 -3.186,-7.912l0,-8.153l-16.399,6.978c-2.53,1.077 -4.601,4.208 -4.601,6.958l0,2.273c0,2.75 1.56,6.622 3.465,8.604l56.795,59.076c1.905,1.982 5.024,1.982 6.93,0l56.795,-59.076c1.905,-1.982 3.465,-5.854 3.465,-8.604l0,-2.273c0,-2.75 -2.071,-5.881 -4.601,-6.958z"/>
     <path stroke="null" id="svg_41" fill="#A05F33" d="m2371.882968,2389.749737l-39.773,0c-8.317,0 -16.323,-1.318 -23.838,-3.733l0,24.698c0,2.75 1.56,6.622 3.465,8.604l36.795,38.272c1.905,1.982 5.024,1.982 6.93,0l36.795,-38.272c1.905,-1.982 3.465,-5.854 3.465,-8.604l0,-24.698c-7.516,2.415 -15.522,3.733 -23.839,3.733z"/>
     <path stroke="null" id="svg_42" fill="#87502A" d="m2323.546968,2410.714737l0,-21.443c-5.269,-0.577 -10.377,-1.68 -15.275,-3.255l0,24.698c0,2.75 1.56,6.622 3.465,8.604l36.795,38.272c1.905,1.982 5.024,1.982 6.93,0l4.173,-4.34l-32.622,-33.932c-1.907,-1.982 -3.466,-5.854 -3.466,-8.604z"/>
     <path stroke="null" id="svg_43" fill="#A05F33" d="m2455.995968,2236.749737l-7.273,0l0,70l7.273,0c11,0 20,-9 20,-20l0,-30c0,-11 -9,-20 -20,-20z"/>
     <path stroke="null" id="svg_44" fill="#87502A" d="m2255.268968,2236.749737l-7.273,0c-11,0 -20,9 -20,20l0,30c0,11 9,20 20,20l7.273,0l0,-70z"/>
     <path stroke="null" id="svg_45" fill="#BF7E52" d="m2449.722968,2313.908737c0,42.99 -34.85,77.84 -77.84,77.84l-39.773,0c-42.99,0 -77.84,-34.85 -77.84,-77.84l0,-94.319c0,-42.989 34.85,-60.84 77.84,-60.84l39.773,0c42.99,0 77.84,17.851 77.84,60.84l0,94.319z"/>
     <path stroke="null" id="svg_46" fill="#A05F33" d="m2269.542968,2313.908737l0,-94.319c0,-42.989 34.85,-60.84 77.84,-60.84l-15.273,0c-42.99,0 -77.84,17.851 -77.84,60.84l0,94.318c0,42.99 34.85,77.84 77.84,77.84l15.273,0c-42.991,0.001 -77.84,-34.849 -77.84,-77.839z"/>
     <g stroke="null" id="svg_47">
      <circle stroke="null" id="svg_48" fill="#1A2B63" r="16" cy="2265.749737" cx="2296.995968"/>
      <circle stroke="null" id="svg_49" fill="#1A2B63" r="16" cy="2265.749737" cx="2406.995968"/>
     </g>
     <g stroke="null" id="svg_50">
      <path stroke="null" id="svg_51" fill="#87502A" d="m2370.995968,2320.249737l-21,0c-9.649,0 -17.5,-7.851 -17.5,-17.5l0,-66c0,-1.355 -1.145,-2.5 -2.5,-2.5l-54,0c-4.143,0 -7.5,-3.358 -7.5,-7.5s3.357,-7.5 7.5,-7.5l54,0c9.649,0 17.5,7.851 17.5,17.5l0,66c0,1.355 1.145,2.5 2.5,2.5l21,0c4.143,0 7.5,3.358 7.5,7.5s-3.357,7.5 -7.5,7.5z"/>
      <path stroke="null" id="svg_52" fill="#87502A" d="m2387.995968,2355.749737l-72,0c-4.143,0 -7.5,-3.358 -7.5,-7.5s3.357,-7.5 7.5,-7.5l72,0c4.143,0 7.5,3.358 7.5,7.5s-3.357,7.5 -7.5,7.5z"/>
      <path stroke="null" id="svg_53" fill="#87502A" d="m2426.995968,2234.249737l-45,0c-4.143,0 -7.5,-3.358 -7.5,-7.5s3.357,-7.5 7.5,-7.5l45,0c4.143,0 7.5,3.358 7.5,7.5s-3.357,7.5 -7.5,7.5z"/>
     </g>
     <circle stroke="null" id="svg_54" fill="#FFAF10" r="23" cy="2537.499737" cx="2446.995968"/>
     <path stroke="null" id="svg_55" fill="#FF9518" d="m2438.995968,2537.499737c0,-10.076 6.481,-18.632 15.5,-21.743c-2.352,-0.811 -4.873,-1.257 -7.5,-1.257c-12.703,0 -23,10.297 -23,23s10.297,23 23,23c2.627,0 5.148,-0.446 7.5,-1.257c-9.019,-3.111 -15.5,-11.667 -15.5,-21.743z"/>
     <path stroke="null" id="svg_56" fill="#FFFFFF" d="m2255.471968,2563.109737c-10.738,0 -19.476,-8.737 -19.476,-19.476l0,-27.922c0,-2.111 1.711,-3.823 3.822,-3.823l31.307,0c2.111,0 3.822,1.712 3.822,3.823l0,27.922c0,10.74 -8.737,19.476 -19.475,19.476z"/>
     <path stroke="null" id="svg_57" fill="#EEF6FF" class="active-path" d="m2251.044968,2543.634737l0,-27.922c0,-2.111 1.711,-3.823 3.822,-3.823l-15.049,0c-2.111,0 -3.822,1.712 -3.822,3.823l0,27.922c0,10.739 8.737,19.476 19.476,19.476c2.666,0 5.208,-0.541 7.524,-1.515c-7.013,-2.95 -11.951,-9.889 -11.951,-17.961z"/>
    </g>
   </g>
   <ellipse stroke="null" id="svg_17" fill="#3ABA68" ry="97" rx="96.766001" cy="414.317431" cx="384.526999"/>
   <path stroke="null" id="svg_18" opacity="0.1" d="m313.132,415.822c0,-48.976 36.641,-89.4 84.034,-95.406c-3.976,-0.501 -8.023,-0.77 -12.133,-0.77c-53.171,0 -96.272,43.058 -96.272,96.177c0,53.116 43.102,96.178 96.272,96.178c4.111,0 8.158,-0.271 12.133,-0.77c-47.393,-6.007 -84.034,-46.433 -84.034,-95.409z"/>
   <path id="svg_19" fill="#FFFFFF" class="active-path" d="m436.573,403.333c0,-2.987 -2.444,-5.43 -5.431,-5.43l-23.739,0c-2.989,0 -5.433,-2.442 -5.433,-5.427l0,-23.717c0,-2.986 -2.446,-5.429 -5.436,-5.429l-23.004,0c-2.989,0 -5.437,2.443 -5.437,5.429l0,23.716c0,2.985 -2.442,5.427 -5.431,5.427l-23.739,0c-2.989,0 -5.433,2.443 -5.433,5.43l0,22.981c0,2.985 2.444,5.428 5.433,5.428l23.739,0c2.989,0 5.431,2.443 5.431,5.428l0,23.716c0,2.985 2.446,5.428 5.437,5.428l23.004,0c2.989,0 5.436,-2.443 5.436,-5.428l0,-23.715c0,-2.986 2.444,-5.428 5.433,-5.428l23.739,0c2.987,0 5.431,-2.443 5.431,-5.428l0,-22.981z"/>
  </g>
 </g>
</svg>